<?xml version="1.0" encoding="UTF-8" standalone="no"?>
<!-- Uploaded to: SVG Repo, www.svgrepo.com, Generator: SVG Repo Mixer Tools -->

<svg
   fill="#000000"
   height="800px"
   width="800px"
   version="1.1"
   id="Layer_1"
   viewBox="0 0 402.161 402.161"
   xml:space="preserve"
   sodipodi:docname="favicon.svg"
   inkscape:version="1.4 (86a8ad7, 2024-10-11)"
   xmlns:inkscape="http://www.inkscape.org/namespaces/inkscape"
   xmlns:sodipodi="http://sodipodi.sourceforge.net/DTD/sodipodi-0.dtd"
   xmlns="http://www.w3.org/2000/svg"
   xmlns:svg="http://www.w3.org/2000/svg"><defs
   id="defs6" /><sodipodi:namedview
   id="namedview6"
   pagecolor="#505050"
   bordercolor="#eeeeee"
   borderopacity="1"
   inkscape:showpageshadow="0"
   inkscape:pageopacity="0"
   inkscape:pagecheckerboard="0"
   inkscape:deskcolor="#505050"
   inkscape:zoom="1.00875"
   inkscape:cx="399.50434"
   inkscape:cy="400"
   inkscape:window-width="1920"
   inkscape:window-height="1009"
   inkscape:window-x="-8"
   inkscape:window-y="-8"
   inkscape:window-maximized="1"
   inkscape:current-layer="Layer_1" />
<g
   id="g6">
	<g
   id="g5">
		<g
   id="g4">
			<path
   d="M201.08,49.778c-38.794,0-70.355,31.561-70.355,70.355c0,18.828,7.425,40.193,19.862,57.151     c14.067,19.181,32,29.745,50.493,29.745c18.494,0,36.426-10.563,50.494-29.745c12.437-16.958,19.862-38.323,19.862-57.151     C271.436,81.339,239.874,49.778,201.08,49.778z M201.08,192.029c-13.396,0-27.391-8.607-38.397-23.616     c-10.46-14.262-16.958-32.762-16.958-48.28c0-30.523,24.832-55.355,55.355-55.355s55.355,24.832,55.355,55.355     C256.436,151.824,230.372,192.029,201.08,192.029z"
   id="path1" />
			<path
   d="M201.08,0C109.387,0,34.788,74.598,34.788,166.292c0,91.693,74.598,166.292,166.292,166.292     s166.292-74.598,166.292-166.292C367.372,74.598,292.773,0,201.08,0z M201.08,317.584c-30.099-0.001-58.171-8.839-81.763-24.052     c0.82-22.969,11.218-44.503,28.824-59.454c6.996-5.941,17.212-6.59,25.422-1.615c8.868,5.374,18.127,8.099,27.52,8.099     c9.391,0,18.647-2.724,27.511-8.095c8.201-4.97,18.39-4.345,25.353,1.555c17.619,14.93,28.076,36.526,28.895,59.512     C259.25,308.746,231.178,317.584,201.08,317.584z M296.981,283.218c-3.239-23.483-15.011-45.111-33.337-60.64     c-11.89-10.074-29.1-11.256-42.824-2.939c-12.974,7.861-26.506,7.86-39.483-0.004c-13.74-8.327-30.981-7.116-42.906,3.01     c-18.31,15.549-30.035,37.115-33.265,60.563c-33.789-27.77-55.378-69.868-55.378-116.915C49.788,82.869,117.658,15,201.08,15     c83.423,0,151.292,67.869,151.292,151.292C352.372,213.345,330.778,255.448,296.981,283.218z"
   id="path2" />
			<path
   d="M302.806,352.372H99.354c-4.142,0-7.5,3.358-7.5,7.5c0,4.142,3.358,7.5,7.5,7.5h203.452c4.142,0,7.5-3.358,7.5-7.5     C310.307,355.73,306.948,352.372,302.806,352.372z"
   id="path3" />
			<path
   d="M302.806,387.161H99.354c-4.142,0-7.5,3.358-7.5,7.5c0,4.142,3.358,7.5,7.5,7.5h203.452c4.142,0,7.5-3.358,7.5-7.5     C310.307,390.519,306.948,387.161,302.806,387.161z"
   id="path4" />
		</g>
	</g>
</g>
<path
   style="fill:#ffffff;fill-opacity:0.963839;stroke:#fefefe;stroke-width:0"
   d="m 198.66235,553.36733 c -53.28076,-47.54926 -88.176,-115.03322 -97.24574,-188.06374 -1.932868,-15.56366 -1.630333,-57.84575 0.52489,-73.35811 4.50101,-32.39631 13.14509,-61.23446 26.96561,-89.9619 15.68994,-32.61323 33.83292,-58.31177 58.94915,-83.49823 47.01245,-47.143921 107.08198,-76.630958 174.96902,-85.889102 17.92865,-2.445033 56.42079,-2.445033 74.34944,0 58.14424,7.929462 108.73885,29.769418 153.05478,66.068506 58.44037,47.868376 95.92357,114.357966 107.28458,190.306746 1.93163,12.91303 2.30357,19.40035 2.33025,40.64436 0.0345,27.4971 -0.88288,37.72133 -5.4301,60.51606 -10.88778,54.5792 -37.12092,105.05972 -76.49707,147.20357 -8.83452,9.4555 -25.4913,24.43478 -26.48692,23.81945 -0.45889,-0.2836 -1.12281,-2.69026 -1.47538,-5.34812 -2.75924,-20.80009 -15.22293,-52.03232 -29.0029,-72.67707 -15.3499,-22.99676 -36.6976,-43.84956 -52.11706,-50.90882 -9.05994,-4.14778 -19.92612,-6.44719 -30.4309,-6.43951 -13.9397,0.0102 -23.62005,2.6596 -39.95216,10.93451 -16.9456,8.58573 -25.61031,11.08322 -38.45184,11.08322 -12.84153,0 -21.50624,-2.49749 -38.45184,-11.08322 -16.33211,-8.27491 -26.01246,-10.92433 -39.95216,-10.93451 -10.50478,-0.008 -21.37096,2.29173 -30.4309,6.43951 -16.98441,7.77572 -41.01412,32.2482 -56.10902,57.14286 -10.91123,17.99492 -20.64588,42.84527 -24.02005,61.31775 -0.94611,5.17967 -2.02044,9.77418 -2.38739,10.21001 -0.36694,0.43583 -4.86077,-2.95007 -9.98629,-7.52422 z M 420.32218,410.01876 c 26.54316,-5.50715 51.32136,-21.58752 72.72029,-47.19348 26.1372,-31.27578 42.91276,-71.28677 46.75917,-111.52416 2.4618,-25.7531 -3.08169,-53.49809 -15.42177,-77.18547 -19.36071,-37.16384 -54.39963,-63.72085 -95.89544,-72.68196 -13.53967,-2.923925 -41.31382,-3.187329 -54.52646,-0.51712 -42.76174,8.64194 -78.60621,35.32324 -98.33784,73.19908 -15.60426,29.95314 -19.66172,62.36511 -12.32533,98.45781 12.02298,59.14926 53.76819,114.80261 99.35914,132.46239 17.74253,6.87262 39.4994,8.75255 57.66824,4.98291 z"
   id="path6"
   transform="scale(0.50270125)" /></svg>
